<svg width="31.88" height="32" viewBox="0 0 260 314" fill="none" xmlns="http://www.w3.org/2000/svg">
<path d="M259.97 22.79V22.77C259.95 22.37 259.92 21.97 259.88 21.57H259.87L189.59 48H212V228.41L130 263.74L48 228.41V48H189.59L256.76 11.99C252.63 4.82 244.87 0 236 0H24C10.75 0 0 10.75 0 24V244.21C0 253.79 5.7 262.46 14.51 266.25L120.51 311.91C123.54 313.22 126.77 313.87 130 313.87C133.23 313.87 136.46 313.22 139.49 311.91L245.49 266.25C254.3 262.46 260 253.79 260 244.21V24C260 23.59 259.99 23.19 259.97 22.79Z" fill="#1F2631"/>
<path d="M260 24V28.56L212 101.53L138.1 213.87C130.87 224.98 115.99 228.12 104.88 220.88L48 183.78L0 152.47L48 126.12L111 167L179.38 63.46L189.59 48L259.87 21.58H259.88C259.92 21.97 259.95 22.37 259.97 22.77V22.79C259.99 23.19 260 23.59 260 24Z" fill="#0072BC"/>
</svg>
